<svg width="1673" height="473" viewBox="0 0 1673 473" fill="none" xmlns="http://www.w3.org/2000/svg">
<path d="M243.34 210.8H74.52V295.9H223.56V355.7H74.52V473H0V151H243.34V210.8Z" fill="#D80E0E"/>
<path d="M578.989 473H498.949L436.849 383.3H368.309V473H293.789V151H433.169C519.189 151 573.009 195.62 573.009 267.84C573.009 316.14 548.629 351.56 506.769 369.5L578.989 473ZM497.569 267.84C497.569 232.42 474.569 211.72 429.029 211.72H368.309V323.96H429.029C474.569 323.96 497.569 302.8 497.569 267.84Z" fill="white"/>
<path d="M872.631 473L844.111 404H694.611L666.091 473H589.731L733.251 151H806.851L950.831 473H872.631ZM718.531 347.42H820.651L769.591 224.14L718.531 347.42Z" fill="white"/>
<path d="M1347.18 473H1277.26L1276.8 279.8L1182.04 438.96H1148.46L1054.16 283.94V473H984.238V151H1045.88L1166.4 351.1L1285.08 151H1346.26L1347.18 473Z" fill="white"/>
<path d="M1497.63 413.2H1672.89V473H1423.57V151H1666.91V210.8H1497.63V280.72H1647.13V338.68H1497.63V413.2Z" fill="white"/>
<rect x="0.819824" width="243" height="57" fill="#D80E0E"/>
</svg>
